<?xml version="1.0" encoding="utf-8"?>
<!-- Generator: Adobe Illustrator 19.0.0, SVG Export Plug-In . SVG Version: 6.00 Build 0)  -->
<svg version="1.1" id="Capa_1" xmlns="http://www.w3.org/2000/svg" xmlns:xlink="http://www.w3.org/1999/xlink" x="0px" y="0px"
	 viewBox="-41 164.9 512 512" style="enable-background:new -41 164.9 512 512;" xml:space="preserve">
<style type="text/css">
	.st0{fill:#FFFFFF;}
</style>
<g>
	<g>
		<path class="st0" d="M426.8,596.7l-36.7-61.1c-16.9-28.2-25.8-60.4-25.8-93.3v-53.5c0-82.3-67-149.3-149.3-149.3
			s-149.3,67-149.3,149.3v53.5c0,32.9-8.9,65.1-25.8,93.3L3.2,596.7c-2,3.3-2,7.4-0.1,10.7c1.9,3.3,5.5,5.4,9.3,5.4h405.3
			c3.8,0,7.4-2.1,9.3-5.4C428.8,604.1,428.8,600,426.8,596.7z M31.2,591.6l26.9-44.9C77,515.2,87,479.1,87,442.4v-53.5
			c0-70.6,57.4-128,128-128s128,57.4,128,128v53.5c0,36.7,10,72.8,28.9,104.3l27,44.9H31.2L31.2,591.6z"/>
	</g>
</g>
<g>
	<g>
		<path class="st0" d="M215,164.9c-23.5,0-42.7,19.1-42.7,42.7v42.7c0,5.9,4.8,10.7,10.7,10.7s10.7-4.8,10.7-10.7v-42.7
			c0-11.8,9.6-21.3,21.3-21.3s21.3,9.6,21.3,21.3v42.7c0,5.9,4.8,10.7,10.7,10.7s10.7-4.8,10.7-10.7v-42.7
			C257.7,184,238.5,164.9,215,164.9z"/>
	</g>
</g>
<g>
	<g>
		<path class="st0" d="M261.2,596.8c-3-5.1-9.5-6.7-14.6-3.8c-5.1,3-6.8,9.5-3.8,14.6c2.8,4.7,4.3,10.4,4.3,15.9
			c0,17.6-14.4,32-32,32s-32-14.4-32-32c0-5.6,1.5-11.2,4.3-15.9c3-5.1,1.3-11.6-3.8-14.6c-5.1-2.9-11.6-1.3-14.6,3.8
			c-4.7,8.1-7.2,17.3-7.2,26.7c0,29.4,23.9,53.3,53.3,53.3s53.3-23.9,53.4-53.3C268.4,614.1,265.9,604.9,261.2,596.8z"/>
	</g>
</g>
</svg>
