<?xml version="1.0" encoding="utf-8"?>
<!-- Generator: Adobe Illustrator 19.0.0, SVG Export Plug-In . SVG Version: 6.00 Build 0)  -->
<svg version="1.1" id="Layer_1" xmlns="http://www.w3.org/2000/svg" xmlns:xlink="http://www.w3.org/1999/xlink" x="0px" y="0px"
	 viewBox="-283 285 512 512" style="enable-background:new -283 285 512 512;" xml:space="preserve">
<style type="text/css">
	.st0{fill:#43AF4A;}
</style>
<path class="st0" d="M-118,585L-118,585C-118,585-118,585-118,585l272,0c6.7,0,12.6-4.4,14.4-10.9l60-210c1.3-4.5,0.4-9.4-2.4-13.2
	c-2.8-3.8-7.3-6-12-6h-366.6l-10.7-48.3c-1.5-6.9-7.6-11.7-14.6-11.7h-90c-8.3,0-15,6.7-15,15s6.7,15,15,15h78
	c1.9,8.6,51.3,230.9,54.2,243.7c-15.9,6.9-27.1,22.8-27.1,41.3c0,24.8,20.2,45,45,45h272c8.3,0,15-6.7,15-15s-6.7-15-15-15h-272
	c-8.3,0-15-6.7-15-15C-133,591.7-126.3,585-118,585z M194.1,375l-51.4,180H-106l-40-180H194.1z"/>
<path class="st0" d="M-133,690c0,24.8,20.2,45,45,45s45-20.2,45-45s-20.2-45-45-45S-133,665.2-133,690z M-88,675c8.3,0,15,6.7,15,15
	s-6.7,15-15,15s-15-6.7-15-15S-96.3,675-88,675z"/>
<path class="st0" d="M79,690c0,24.8,20.2,45,45,45s45-20.2,45-45s-20.2-45-45-45S79,665.2,79,690z M124,675c8.3,0,15,6.7,15,15
	s-6.7,15-15,15s-15-6.7-15-15S115.7,675,124,675z"/>
</svg>
